<?xml version="1.0" encoding="utf-8"?>
<!-- Generator: Adobe Illustrator 17.1.0, SVG Export Plug-In . SVG Version: 6.00 Build 0)  -->
<!DOCTYPE svg PUBLIC "-//W3C//DTD SVG 1.1//EN" "http://www.w3.org/Graphics/SVG/1.1/DTD/svg11.dtd">
<svg version="1.1" id="Ebene_1" xmlns="http://www.w3.org/2000/svg" xmlns:xlink="http://www.w3.org/1999/xlink" x="0px" y="0px"
	 viewBox="0 0 324 277" enable-background="new 0 0 324 277" xml:space="preserve">
<path id="_x37_7_13_" fill="#50BAB1" d="M116.8,94.5l2.5-6.1l7.9-4.1l-1.4-8l13.2-7.7l7.2-1.6l1.8,3.4l2.2-7.9l3.7,3.4l10.5-4.6
	l3,3.2L159,80.8l3.3,2.3l-2.5,8.1l8.4,9.8l4.2,8l-3.4,5.6l-28.2-3.1l-12.1,3.4l-10.2-5.1L116.8,94.5L116.8,94.5z">
<title>Rümlang</title>
</path>
<circle fill="none" stroke="#50BAB1" stroke-width="1.1732" stroke-miterlimit="10" cx="144.6" cy="90.2" r="56.5"/>
<line fill="none" stroke="#50BAB1" stroke-width="0.7821" stroke-miterlimit="10" x1="88.1" y1="90.2" x2="0" y2="90.2"/>
<g>
	<rect x="52.2" y="176.4" fill="none" width="271.8" height="123.7"/>
	<text transform="matrix(1 0 0 1 52.1881 189.8611)" fill="#A7A7A7" font-family="'Roboto-Regular'" font-size="10.6343">Einwohner TotaL</text>
	
		<text transform="matrix(1 0 0 1 149.0553 189.8611)" fill="#A7A7A7" font-family="'Roboto-Regular'" font-size="15.7203" letter-spacing="-1">	</text>
	<text transform="matrix(1 0 0 1 151.4879 189.8611)" fill="#A7A7A7" font-family="'Roboto-Regular'" font-size="15.7203">| </text>
	<text transform="matrix(1 0 0 1 159.2867 189.8611)" fill="#50BAB1" font-family="'Roboto-Regular'" font-size="15.7203">350’354 Personen </text>
	<text transform="matrix(1 0 0 1 52.1881 216.2155)" fill="#A7A7A7" font-family="'Roboto-Regular'" font-size="10.6343">Raum pro Einwohner</text>
	
		<text transform="matrix(1 0 0 1 170.9362 216.2155)" fill="#A7A7A7" font-family="'Roboto-Regular'" font-size="15.7203" letter-spacing="1">	</text>
	<text transform="matrix(1 0 0 1 176.3121 216.2155)" fill="#A7A7A7" font-family="'Roboto-Regular'" font-size="15.7203">| </text>
	<text transform="matrix(1 0 0 1 184.111 216.2155)" fill="#50BAB1" font-family="'Roboto-Regular'" font-size="15.7203">32 m</text>
	<text transform="matrix(0.583 0 0 0.583 219.4596 207.7444)" fill="#50BAB1" font-family="'Roboto-Regular'" font-size="15.7203">2</text>
	<text transform="matrix(1 0 0 1 52.1881 242.57)" fill="#A7A7A7" font-family="'Roboto-Regular'" font-size="10.6343">Nettoaufwand Verkehr</text>
	
		<text transform="matrix(1 0 0 1 187.1647 242.57)" fill="#A7A7A7" font-family="'Roboto-Regular'" font-size="10.6343" letter-spacing="3">	</text>
	<text transform="matrix(1 0 0 1 192.8639 242.57)" fill="#A7A7A7" font-family="'Roboto-Regular'" font-size="15.7203">| </text>
	<text transform="matrix(1 0 0 1 200.6627 242.57)" fill="#50BAB1" font-family="'Roboto-Regular'" font-size="15.7203">340 CHF/Person</text>
	<text transform="matrix(1 0 0 1 52.1881 268.9245)" fill="#A7A7A7" font-family="'Roboto-Regular'" font-size="10.6343">Leerwohnungen</text>
	
		<text transform="matrix(1 0 0 1 145.0573 268.9245)" fill="#A7A7A7" font-family="'Roboto-Regular'" font-size="10.6343" letter-spacing="3">	</text>
	<text transform="matrix(1 0 0 1 151.4879 268.9245)" fill="#A7A7A7" font-family="'Roboto-Regular'" font-size="15.7203">| </text>
	<text transform="matrix(1 0 0 1 159.2867 268.9245)" fill="#50BAB1" font-family="'Roboto-Regular'" font-size="15.7203">3.23% </text>
</g>
<rect x="90" y="1.9" fill="none" width="109.2" height="29.7"/>
<text transform="matrix(1 0 0 1 89.9733 14.154)" fill="#50BAB1" font-family="'Roboto-Regular'" font-size="16.0719">Bonstetten</text>
</svg>
